<svg enable-background="new 59.63 15.063 800.279 416.397" height="228.035085" viewBox="59.63 15.063 800.279 416.397" width="438.52901" xmlns="http://www.w3.org/2000/svg"><path d="m231.473 183.187c-13.119 0-20.097-8.403-20.176-24.305l-.17-36.634c0-.407.306-.736.701-.792l11.435-1.097c.215-.022.43.045.6.216.158.124.259.328.259.564l.17 36.182c.034 7.952 3.054 12.001 9.001 12.001.465 0 .939-.024 1.449-.092 6.967-.678 10.484-5.405 10.451-14.093l-.169-36.18c0-.418.304-.736.712-.78l11.469-1.121c.237-.021.452.045.621.193.159.148.249.373.249.589l.169 36.609c.045 9.829-2.929 26.59-23.421 28.581-1.168.101-2.287.159-3.35.159"/><path d="m270.515 177.962c-.182 0-.384-.079-.53-.227-.148-.124-.238-.337-.238-.564l-.294-60.407c0-.43.316-.769.724-.792l12.192-.836c.26-.022.521.09.667.294l25.831 34.099-.158-35.501c-.011-.418.306-.759.726-.782l9.862-.701c.214 0 .43.067.587.227.17.148.249.339.249.566l.283 60.406c.011.429-.317.771-.726.793l-10.121.701c-.26 0-.532-.09-.678-.283l-27.902-36.973.182 38.511c0 .418-.317.746-.724.769l-9.875.702h-.057z"/><path d="m334.881 173.799c-.191 0-.396-.079-.532-.215-.158-.146-.259-.351-.259-.553l-.339-60.239c0-.417.315-.78.735-.79l13.119-.645c.227-.011.431.068.589.214.158.125.248.339.248.555l.296 60.237c0 .418-.341.759-.759.793l-13.051.645h-.045v-.002z"/><path d="m383.244 171.763c-.317 0-.602-.191-.726-.474l-25.684-59.479c-.092-.238-.068-.533.079-.747.135-.215.362-.352.633-.352l14.998-.452c.373.011.621.193.746.474l16.706 38.828 17.27-39.868c.114-.27.384-.463.678-.475l11.842-.339c.305 0 .519.114.667.339.168.237.18.497.067.747l-26.318 61.019c-.114.283-.396.452-.701.463l-10.248.316z"/><path d="m429.704 170.623c-.429 0-.791-.341-.791-.771l-.351-60.237c0-.204.079-.407.227-.566.158-.148.351-.227.553-.227l48.283-.034c.431 0 .781.339.781.769l.055 11.729c0 .204-.077.418-.226.553-.159.148-.351.227-.565.227l-33.624.034.045 10.428 22.596-.033c.432 0 .782.373.782.791l.056 11.807c0 .227-.078.431-.227.577-.147.146-.35.216-.553.216l-22.587.033.034 11.3 34.042-.046c.43 0 .78.373.78.804l.057 11.795c0 .227-.078.431-.226.555-.147.158-.351.238-.554.238l-48.578.057h-.011v.001z"/><path d="m507.813 135.323 10.709.328c.487.011.951.011 1.393.011 3.947 0 6.255-.555 7.498-1.821 1.007-1.007 1.447-2.58 1.447-5.113-.031-2.861-.564-5.461-7.09-5.643l-14.002-.43zm38.205 37.132h-.034l-15.608-.476c-.271 0-.508-.148-.645-.396l-13.221-22.733-8.551-.261.103 21.908c0 .214-.079.418-.249.564-.126.146-.34.216-.566.238l-13.164-.407c-.43-.011-.771-.351-.771-.791l-.281-60.407c0-.216.089-.418.247-.566.125-.135.34-.236.566-.225l33.148.996c10.994.337 17.328 7.338 17.385 19.237.056 11.459-6.084 16.23-11.638 18.222l13.945 23.92c.146.249.146.555 0 .793-.123.236-.372.384-.666.384"/><path d="m580.323 175.971c-.827 0-1.665-.022-2.535-.079-9.342-.486-19.09-6.334-21.839-8.121-.238-.124-.374-.373-.374-.645l-.068-13.933c0-.273.159-.555.43-.691.238-.124.566-.113.791.045 8.45 5.645 16.525 9.287 21.084 9.547 4.319.225 7.18-.418 8.618-1.856.701-.701 1.029-1.595 1.029-2.749 0-1.357-1.392-2.679-4.378-4.162-1.764-.904-3.856-1.765-6.084-2.68-9.41-3.868-22.314-9.149-22.371-23.412-.023-4.751 1.47-8.698 4.455-11.707 3.847-3.855 10.021-5.824 16.943-5.452 8.143.454 17.847 4.616 22.394 7.319.237.135.373.405.373.679l.08 13.492c0 .294-.159.566-.419.69-.262.148-.554.137-.803-.022-2.805-1.843-12.612-7.849-21.635-8.334-3.202-.17-4.798.677-5.488 1.378-.677.667-.769 1.359-.769 1.719 0 1.46 1.448 2.942 4.41 4.536 1.777.95 4.05 1.912 6.459 2.919 9.274 3.913 21.976 9.251 22.034 22.077.033 5.722-1.619 10.28-4.934 13.595-3.845 3.88-9.702 5.847-17.403 5.847"/><path d="m628.639 151.644 10.925.792-5.374-14.782zm34.088 28.149c-.012 0-.023 0-.059-.01l-12.993-.95c-.317-.034-.577-.216-.679-.521l-4.378-12.159-21.14-1.56-4.478 11.434c-.124.318-.417.521-.78.499l-10.89-.802c-.238-.022-.5-.158-.624-.351-.124-.226-.146-.486-.055-.714l23.343-59.196c.137-.328.44-.52.793-.508l9.104.679c.292.011.575.214.679.52l22.879 62.59c.125.238.068.521-.09.726-.147.211-.395.323-.632.323"/><path d="m709.369 184.102h-.077l-37.461-3.448c-.406-.045-.699-.384-.699-.793l-.363-61.118c0-.238.078-.442.249-.6.181-.148.374-.214.61-.203l11.322 1.052c.408.034.714.373.714.78l.225 48.419 25.491 2.353c.396.034.701.372.713.791l.047 11.977c.012.238-.079.429-.238.587-.148.137-.341.203-.533.203"/><path d="m487.601 23.432c-6.356-1.55-13.334-.373-13.144-.101-.676-.227-1.978-.69-2.713-.533-.103.011-.158.034-.238.067.136.069.295.137.441.193-.441.169-.632-.056-1.007-.137.237.328.192.271-.011.611.011.045.033.09.066.146 1.019.238 2.014.634 3.45.476v-.079c-.306-.306-1.007-.362-1.368-.645h-.137v-.069c.939.171 1.732.589 2.377 1.018.09-.079.18-.135.294-.191-.249.385-.51.487-.374.881-1.538-.236-2.668-.791-3.269.906.169.148.339.283.509.429-.125.045-.248.081-.373.125-.023.135-.057.272-.08.418.611.566.961.861 1.732 1.153.033.283.078.6.123.906.182.157.182.125.44.079.328.317.103.555.271.757.418.544 2.013 1.335 2.364 1.822.124.146.022.463.293.634.566.384 1.233.609 1.732 1.052.18.102.045.011 0 .191 1.13.531 2.872.486 3.822 1.063.191.191.088.069.078.339.984.272 1.969.544 2.963.814.059-.011.148-.034.203-.056.068-.261.047-.272-.055-.51.587-.328.734-.971 1.164-1.425-.203-.373-.283-.407-.215-.928.813-.113 1.061-.553 1.743-.712-.081-.396-.036-.486-.364-.645.193-.146.148-.079.443.011.076-.068.135-.146.213-.214-.213-.182-.44-.385-.656-.578h-.135v-.079c.385.114.791.182 1.223.114.055-.024.111-.034.158-.081-.104-.101-.193-.225-.295-.351.033-.032.057-.045.057-.067.565.305.905.328 1.741.339.057-.191.112-.362.146-.553.126-.013.238-.036.373-.047-.135.17-.247.351-.373.532.024.056.058.102.069.146 1.696.386 2.861-.27 4.479-.542v-.42c1.934-.553 4.693.624 6.583.476.561-.028-6.906-4.812-14.743-6.735"/><path d="m401.995 182.724c.86 1.423 1.652 3.38 2.761 4.534 2.34 2.398 6.174 3.699 7.645 6.775.712.702 1.402 1.392 2.104 2.07-.034.339-.079.656-.124.972.124.961.564 2.319.407 3.359-.058.463-.227 1.052-.191 1.573.077.304.157.63.225.96-.17.972-.577 1.991-.6 3.189-.294.124-.112.056-.508 0-.013.351-.034.7-.058 1.041h.351c-.079.645-.169 1.301-.248 1.935.079.645.159 1.299.225 1.933-.09.261-.497.362-.564.747.057.238.113.508.158.724-.125 1.324-.373 2.465-.746 3.212-.396.813.011 1.594-.701 2.07.137 1.018.465 1.562.396 2.67-.281.09-.158.067-.508.067-.159 2.432 1.05 3.755.294 5.542.113.056.394.756.283 1.04-.578 1.594-1.313 3.122-1.449 4.999-.067-.045-.135-.102-.214-.146 0 .316.011.645.011.961-.215-.078-.431-.158-.645-.227-.022.012-.045.047-.069.068.137 1.334.781 2.772 1.323 3.892-.056 1.538-.961 2.013.191 3.731v.305c-.124-.078-.248-.146-.36-.237-.238.714.146 1.46-.056 2.274.248.305.531.373.949.52.057-.032.137-.057.203-.079.17-.769.079-1.686-.306-2.272.046-.045.103-.077.148-.135.158.078.339.135.497.213h.069c-.034-.316.135-.258-.137-.283.045-.09.09-.19.137-.305.113.159.25.295.372.453-.077.09-.146.193-.236.293.362.238.543 1.053.101 1.233.125.112.238.202.364.294-.205 1.246.021 2.104.021 3.428h-.135c-.103-.396-.396-1.494-.227-1.596-.283-.373-.554-.622-1.03-.814-.214.328-.351.826-.407 1.323.193.182.373.384.578.589-.022.339-.045.667-.068 1.018h-.499v.068c.081.123.148.282.216.429-.193.147-.386.308-.565.44v.295c.158.103.338.191.497.283.102-.092.191-.181.294-.295.328.295.983.396 1.288.736-.09-.033-.18-.047-.281-.068.101.227.079.125.214.283-.067.248-.135.474-.203.723-.261-.146-.294-.249-.724-.293v.09c.067.068.135.147.225.203-.135.079-.25.16-.362.227.384.701.475 1.776.949 2.398.341.158.667.34 1.009.52-.193-.078-.386-.122-.578-.158v.068c.079.283.137.588.215.87.124.046.248.103.362.147.101-.215.191-.43.292-.656.069.182.137.34.215.509h-.294c-.022.022-.045.046-.067.08.283.419.339.622.373 1.221.285-.09.566-.182.861-.282.18.17.135.192.429.282l-.148.294c-.237-.078-.475-.147-.712-.213-.034.045-.045.09-.068.135.25.463.634.746 1.086 1.018-.045-.092-.09-.203-.146-.294.418.339.802.679 1.222 1.019v.066c-.386-.158-.759-.328-1.155-.496.499.609.895.813 1.449.939-.022.18.021.021-.069.202.555.565 2.884 2.103 3.529 1.944-.022.295.022.079-.067.306.678.646 2.883 1.47 3.958 1.73v-.067c-.169-.182-.351-.34-.51-.497.782.247 1.28.032 1.8.497v-.295c.328.047.667.102 1.007.137h.067c.022-.033.047-.09.068-.137v-.202c-1.967-.249-2.601-1.957-4.185-2.397.079-.09.159-.193.227-.283-.452-.486-1.041-.452-1.437-.938-.056-.035-.101-.059-.146-.07.067-.056.146-.09.214-.136.362.136.725.282 1.063.408v-.058c-.566-.733-1.493-1.243-1.595-2.466.035-.045.056-.09.09-.146.328-.079.669-.124.996-.226.272-.203.182-.623.124-1.154.465-.304 1.438-.508 1.8-.926.113-.171.113-.634.056-1.1-1.175-.777-2.906-1.016-2.521-2.758.543-.431 1.29-.577 2.002-.283h.304c-.102-.284 0-.172-.225-.305.135-.308.203-.263.497-.353.058-.452-.09-.848-.214-1.245.294-.44.553-.632 1.29-.666-.182-.339-.611-.408-.87-.645-.046-.022-.103-.057-.148-.078.169-.07.327-.16.497-.228.373.261.499.419.725.803.181.034.383.056.587.069.056-.069.135-.125.203-.216 0-.44-.034-.646-.215-.87-.057-.058-.102-.137-.146-.215-.271.021-.531.045-.792.078.125.09.236.191.351.281v.069c-.158-.034-.328-.091-.497-.137-.215-.181-.227-.373-.712-.509-.249-.439-.262-1.277-.454-1.842.544-.656 1.776.701 2.533.893.566-.035 1.131-.057 1.708-.068.125-.283.238-.543.362-.824-.09.056-.191.101-.281.146-.103-.09-.205-.182-.296-.282.341-.499.836-1.053.555-1.754.102.045.205.09.294.16h.069c-.047-.16-.092-.307-.148-.443 1.041.418 5.644 1.076 6.909.352.285-.146 1.382-1.493 1.787-1.811 0-.337 0-.699 0-1.029-.609-.213-.904-.247-.949-1.029.191-.156.373-.337.564-.52-.294-1.277-1.607-1.413-2.183-2.42.102-.112.204-.236.294-.361.069-.034.135-.057.214-.09.193.316.397.406.51.824.452.09.905.18 1.369.306.409.271.905 1.131 1.448 1.233.431.09.757-.193 1.233 0 .339.169.577.588 1.153.508 1.46-.158 1.718-.848 2.58-1.447.509-.215 1.005-.439 1.515-.656.362-.486.747-.973 1.131-1.458.962-.42 1.922-.837 2.871-1.247 1.146-.756 1.744-2.113 2.794-2.928 1.325-1.029 2.998-1.21 3.519-3.077-.101-.011-.203-.032-.306-.065.205-.727.25-1.664.646-2.659.305-.781 5.383-3.348 6.693-2.962.284.214.566.452.862.655.045-.158.112-.328.146-.486-.102-.034-.191-.058-.295-.101v-.068c.645-.159 1.301-1.132 1.946-.917.226-.227.236-.137 0-.375v-.214c1.367-.01 3.936.531 5.214 1.144.124-.193.113-.193.362-.285-.069-1.14 1.3-.701 2.147-1.097.555-.418.6-1.765 1.439-2.171 1.354-.679 1.287-1.108 2.236-1.742.418-.261.815-.238 1.074-.645.974-1.562.317-2.261 2.309-2.986.329-1.075.588-1.922 1.211-2.702.314-.351.632-.712.938-1.076.34-.96.123-1.763.497-2.624.397-.949 1.222-1.56 1.302-2.771.882-.463 1.664-.306 2.522-.915 1.231-1.065 2.454-2.15 3.688-3.225.429-.09.869-.17 1.299-.261.555-.429 1.108-.859 1.663-1.299 1.989-1.29 3.618-2.42 4.4-4.931.011-.487.045-.973.067-1.472.214-.915 1.288-6.866 1.277-6.866-55.792-.12-97.164.561-97.164.561m49.584-155.786c.904.124 2.104.26 3.099.701 1.007.452 1.254 1.097 2.34 1.267-.236.169-.373.067-.724-.011.261.441.533.677 1.153.756-.1.058-.191.103-.293.148.283.261.465.463.861.634h.294c-.09-.294-.035-.214-.273-.362v-.056c2.083.678 3.994 2.148 6.392 2.521.114-.317-.045-.146.292-.203v-.067c-.7-.939-2.361-1.946-3.504-2.42-.033-.081-.045-.182-.068-.272.453.238.904.475 1.357.724v-.283c1.301.757 2.793 1.685 4.094 2.432.124-.023.25-.045.362-.057h.137c0-.011.01-.045.01-.069-.464-.304-.702-.259-1.005-.724.203.091.384.159.586.227.023.011.047.011.08.011.012-.259-.046-.306-.227-.555.023-.045.057-.102.08-.134.17.113.125.066.215.259.441-.034.306-.079.508-.328.115.283.126.283.352.429h.08c-.045-.101-.104-.191-.148-.271h.509c0-.057 0-.089.013-.146-.43-.259-.791-.555-1.369-.724-.033-.045-.045-.09-.078-.135.147-.011.294-.034.44-.047v-.077c-.396-.341-1.675-1.359-2.589-1.222.021-.418-.205-.973-.703-1.11h.577c.035-.055.045-.09.081-.146-.092-.09-.193-.18-.297-.272.951.079 1.775.825 2.603.872-.294.938 1.56 1.209 2.205 1.719.485-.067.454-.227.804-.272-.067-.046-.137-.103-.204-.148.103-.214.034-.124.216-.259.373.146.724.283 1.074.09v.27c.182.013.34.013.508.013-.066-.09-.146-.193-.213-.283.227-.114.021-.045.281.011.092-.023.16-.045.227-.057-.09-.148-.18-.296-.295-.429.656.158.917.135 1.447.022-.18-.6-.982-.849-1.706-.804-.101-.182.046-.09.202-.182-.236-.011-.474-.032-.71-.032-.249-.114-.442-.555-1.221-.577.146-.148.021-.079.292-.137-.248-.236-.926-.598-1.368-.576-.045-.045-.09-.09-.135-.135.09-.047.191-.092.282-.125-.757-.158-.949-.373-1.449-.113-.439-.341-.393-.555-1.14-.633.057-.069.102-.135.146-.205-.575-.146-1.142-.294-1.72-.429v-.079c.137-.034.283-.056.443-.069.009-.259.031-.18-.081-.396.544.137 1.063.283 1.595.409.046-.035.091-.079.136-.125-.317-.328-.803-.508-1.288-.497.021-.056.057-.125.067-.204.272.081.542.148.792.204.033-.011.056-.034.078-.045v-.215c-.634-.475-.78-.487-1.787-.441.227-.294.307-.215.725-.26 0-.022 0-.034.011-.067-.747-.544-1.832-.283-2.589-.713-.014 0-.668-.769-.782-.827-.542-.304-2.375-.69-2.726-.701.058-.067.103-.135.159-.203-.701-.317-1.391-.543-2.148-.894h.587v-.066c-.351-.532-3.607.825-4.228 1.639-.216-.124 1.344 1.211.915 1.131-.045.067-.102.137-.148.191h-.146c.204.352 1.719.273 2.081.285.022.056.045.09.081.146-.283.137-.363-.09-.737-.009h-.135c.203.508.656.394 1.14.214.069.182.137.362.227.553-.328-.135-.508-.135-.938-.146.148.487 1.018.577 1.629.634.022-.102.055-.205.079-.283-.236-.045-.487-.101-.712-.135.032-.148.056-.283.079-.418.431.146.634.396 1.211.497.124.351.237.724.34 1.074-1.132.137-2.263.272-3.405.386-.023.045-.045.09-.069.135.227.236.476.463.703.701v.068c-.792-.236-1.651-.045-2.387-.158-1.571-.272-2.76-1.099-4.331-.159.032.067.066.114.079.204.447.813 1.814.495 2.72.62m-47.391 50.816c.521.429 2.059-.452 2.807-.452.327.441 1.017 2.171 1.423 2.25.589 1.357-1.063 2.047-.893 3.088.045.033.09.045.137.069.293-.25.248-.238.169-.566.045-.045.09-.058.135-.079.137.383-.034.304.362.339-.272.203-.542.405-.803.611-.125.292.067.994.137 1.627.113.067.236.113.362.159.045-.092.09-.215.135-.306.022.057.045.09.079.146-.283.351-.306.51-.521.872.182.033.114 0 .307-.081.158.26.236.408.135.792.032 1.108 1.177 1.108.645 2.274.396.598 1.684.214 2 .248 0-.893 1.142-1.82 1.526-2.704.499-1.108.024-2.646.024-4.025.135-.045.294-.103.442-.159-.159-1.007-.341-2.047-.487-3.077.362-3.913 3.495-4.875 6.628-5.813 1.47-.442.915-1.708 3.63-1.166.679-1.277 2.951-1.039 4.286-1.356.035-.058.058-.114.081-.147-.283-.193-.216-.09-.362-.43v-.079c.362-.238 1.459-.418 1.887-.407.148-.215.262-.397.375-.566-.227-.373-.746-.555-1.312-.577v-.09c.476.09.928.158 1.391.227v.576c.046-.034.204-1.515.249-2.272-.159-.045-.306-.101-.44-.137-.215-.157-.047-.056-.069-.36-.021-.294.51-1.029.747-1.348-.214-.169-.022-1.333.013-1.695.351-.294.688-.6 1.029-.905-.827 1.166-.407 1.166-.679 2.533.214.068.429.137.643.227-.418.351-.847.519-1.097 1.063-.034.034-.056.079-.067.125.135.112.08.101.362.146.407-.872 2.104-1.458 2.861-2.681-.463-.475-.271-.758-.418-1.403.328.306.463.565 1.007.702-.092.124-.203.238-.294.362v.056c1.12.159 2.636-1.301 3.157-2.081-.092-.281 0-.135-.216-.294-.022-.056-.045-.09-.067-.146 1.3-.157 3.165.227 4.592.068-.124-.146-.25-.283-.362-.441-1.099.158-2.07-.283-3.145-.034 1.289-1.018 5.214.407 6.943-.25.193.465.6.431 1.449.465.09-.148.191-.283.294-.431-.067-.101-.135-.236-.215-.35-.17.384-.022.408-.441.408-.191-.011-.396-.058-.588-.081-.102-.44.056-1.018-.724-1.153v-.135c.362-.09.701-.17 1.052-.249-.103-.158-.203-.283-.294-.43.497-.611 1.515-.928 1.98-1.38 1.142.225 1.876.204 2.998-.418.18.203.145.148.145.418 1.402-.101 2.749.011 4.231-.384-.068-.146-.137-.283-.205-.43.17-.011.917.259 1.153.315 1.108.227 3.257 0 4.187-.304.032.034.077.09.124.146-.339.09-.679.17-1.018.25-.022.034-.045.09-.067.135.384.079.78.182 1.155.259-1.393.215-2.773.442-4.164.646-.022.045-.045.09-.067.135.159-.045.328-.079.51-.124-.103.045-.204.079-.296.124-.349.441-.452.452-.452 1.2.136 0 .294 0 .431.01.293.396.114.645.655.656 1.008.047 1.957-.609 3.088-.679.137-.305 0-.349.352-.474.068.067.102.137.158.204.09-.079.191-.182.283-.272.101.463.317.463.735.587.612-.634 4.491.17 5.632-.146.045.011.09.011.147.011-.227-.238-.42-.306-.885-.317.193-.124.238-.067.364-.283.905.317 1.865.125 3.065.137v-.223c.067-.418-.589-.782-1.074-.814v-.079c.191-.227.394-.465.586-.691-.168-.248-.146-.113-.146-.417-.137-.046-.296-.069-.44-.103-.726.373-2.365.746-2.421 1.764-.51.067-.771.045-.804-.543-1.662.182-2.33-.666-3.711-.825-.1-.124-.202-.248-.292-.362.102 0 .193 0 .292.011.035-.058.047-.114.08-.146-.442-.17-.882-.352-1.312-.532-.225-.146-.463-.825-.645-1.166.114-.079.238-.169.362-.261-.191-.18-.396-.225-.792-.236v-.135c.769-.114 1.12-.521 1.832-.792.045-.102.103-.18.146-.272v-.079c-.756.227-1.39.091-2.475.079-.148-.52-.521-.712-1.097-.812-.022-.045-.046-.092-.079-.148.994.103 1.344.52 2.193.623.758-.09 1.504-.182 2.274-.283 0-.068 0-.146 0-.203.226-.159.021-.171-.081-.43.115.032.205.067.295.079v-.069c-1.776-2.387-8.008-1.538-10.711-1.063-1.063.204-1.82 1.211-3.292 1.211.634-.6 4.457-2.036 5.656-2.409 0 0 2.398.182 2.544.146.215-.236.44-.474.658-.701.994-.519 2.441-.317 3.731.023 1.686.476 3.257.645 4.92 1.222 1.041.351 4.174 1.629 5.248 1.447.826-.112 1.584-.384 2.342-.701 1.763-.712 5.281 1.108 6.49-.227.091-.248.059-.022-.078-.349.045.021.092.055.146.079.215-.351-.01-1.517.239-1.901-.419-.158-.838-.328-1.233-.475.012-.204 0-.045.069-.283-.748-.057-.804-.238-1.302-.216-.147-.825-.916-1.142-1.811-1.256v-.079c.634.079 1.256.148 1.891.215-.34-.486-1.145-.542-1.234-1.029-.598-.135-1.119-.034-1.606-.351-.259-.17-.191-.191-.202-.429-.305-.216-1.098-.148-1.379-.396-.33-.283-.387-.543-.871-.746-.091-.306-.181-.114.078-.339-.057-.146-1.335-1.074-1.877-1.176.203-.204.113-.125.361-.148.057-.159.034-.566.08-1.108-.158-.069-.328-.159-.51-.227-.044-.022.158-.384.158-.848-.645-.26-1.368-.51-1.289-1.29h-.362c-.429-.666-2.093-2.782-2.059-3.461-1.777.476-4.048 3.314-6.47 1.38-.405.034-.69-.587-1.436-.735-.045-.203-.056-.396-.079-.611-.157-.034-.328-.057-.499-.079.216-.598.442-.677.386-1.458.27-.09.542-.193.801-.328-.066-.102-.124-.225-.203-.328-.227.079-.452.17-.656.25-.476-.533-1.528-.748-2.387-.984-.011-.057-.045-.102-.056-.137v-.079c.148-.124.103-.101.362-.135v-.069c-.555-.497-1.719-1.369-2.42-1.594-.611.01-1.211.022-1.81.034-1.515-.51-2.917-1.099-4.457-1.041-.146.135-.292.272-.44.407-.034.09-.056.169-.079.272.124.18.103.18.351.272-.306.407-.702.564-1.322.678.576.666.169.734.485 1.165-.227.236-1.955.917-2.634.938-.08.125-.148.26-.228.396.93.306 1.708.984 1.754 2.139-.769 1.661-2.523 1.944-4.603 2.295-.759.034-1.494.045-2.251.067h-.135c.057.317-.034.735.407.883-.396.747-1.187 1.628-.656 2.477-.373.294-.905.679-1.391.679 0 .203 0 .418-.011.621-.09.011-.18.034-.283.081-.022-.272-.158-.238-.283-.578-.588.081-.917.328-1.301.578-.259-.135-.486-.238-.722-.352-.238-1.142-.975-1.821-1.46-2.873.373-.351.69-.609.973-1.041-.013-.18-.045-.362-.069-.544.42-.428.872-.609 1.188-1.175-1.483-.113-5.792-1.437-6.65-2.272-.305-.272-.373-.928-.826-1.268-.667-.306-1.333-.611-1.99-.928-.748.011-1.494.034-2.239.045h-.148c.531-.542.86-1.335 1.29-1.967-.375-.193-.895-.215-1.504-.193 0-.101 0-.203.01-.328 1.414-1.64 5.962-3.313 7.895-3.2-.09-.09-.203-.203-.283-.317.703.056 1.472.148 2.228.046.262-.362.227-.362-.045-.679h-.146v-.043c1.12.34 4.92.282 6.65-.6.238-.159.081-.067 0-.261.759-.169 1.515-.328 2.263-.497h.135c0-.013.011-.034.011-.069-.146-.113-.227-.146-.508-.18-.011-.034-.045-.092-.056-.137.497.045 1.005.079 1.502.125 0 .373 1.063 1.052 1.55 1.198.158-.158.034-.022.09-.191.022-.034.045-.058.067-.069-.191.011-.09-.011-.304.069-.114-.283-.159-.306-.476-.532v-.068c.238.102.476.216.712.328-.022-.193-.045-.407-.056-.6.283.193.564.396.848.588v-.193c1.233-.304 2.386-.27 3.326-.531-.17-.215-.373-.407-.555-.611.056-.045-6.729-3.776-14.636-3.664-5.09.102-23.434 6.378-37.911 13.685-11.062 5.61-19.578 12.588-20.087 13.085-4.423 3.845-8.662 8.55-10.892 14.308-.27.283-.508.577-.769.881-.191.375-1.458 3.688-1.47 3.834.216.013.418.034.621.058-.135.973.454.983.203 2.205-.396 1.719-1.616 3.823-2.17 5.723-.103.397-.51 1.357-.396 1.867.124.645.372 1.515.124 2.353-.283.463-.544.938-.814 1.414-.339 0-.465.09-.825-.024-.024 0-.046.024-.069.024-.101.971.261 1.549.204 2.398.203-.011.137 0 .328-.114.588 1.493.306 3.155-.815 4.231.328 1.412 1.076 2.205.804 4.387v.068c.058.022.103.035.148.045 1.288-1.345.96-1.176 1.084-2.895-.032-.158-.09-.328-.135-.475-.124.124-.227.259-.328.396-.034.022-.056.034-.079.034-.182-1.131.949-3.902 1.176-5.079.148-.757-.272-2.092-.067-2.996.485-2.139.724-6.763 2.499-8.111.079.159.182.317.272.463.09-.045.17-.102.271-.18.373 1.267-1.177 3.133-.984 4.796-.396.292-.577.486-.813.915.056.045.125.113.204.182.124-.137.271-.294.407-.418-.012.418-.227 1.775.18 2.194.125.17 0 .079.226.034.046.045.091.079.125.137-.225.474-.418.733-.407 1.479.137.125.079.125.339.159-.067.306-.137.6-.203.894.113-.022.225-.034.338-.045 0 .96-.373 1.254-.825 1.911.125.87.51 1.097.883 1.742-.272.294-.261.475-.34.915.69.928 1.571 7.284.261 8.224-.317.452-.33.362-.148.791-.227.317-.362.294-.679.396-1.005 2.443 1.166 3.088 1.222 5.079.148.079.306.214.475.328 0 0 8.03-.283 12.804-.384.182-.011-.351-.182-.587-.375-.205-.18-1.144-5.055-.975-5.734.182-.26.341-.51.499-.78-.713-1.515.362-3.1.982-4.479.487-1.187.997-2.387 1.472-3.584.463-.578 1.346-.418 1.627-1.437.172-.69-.135-1.312.217-2.182.317-.792 1.176-1.031 1.119-2.036.463.056 1.266-.306 1.346-.703.079-.112.146-.236.225-.372.013.294.023.192-.079.441.351-.17.215-.216.418-.182.103-.124.193-.259.294-.384-.079-.102-.146-.214-.215-.315 1.245.113 2.162-.375 3.234-.996.658.169.42-.317.362-.679.159-.193.33-.261.579-.407.01.045.034.067.055.09-.09.102-.191.203-.27.294.079.045.18.079.27.135.306.238 1.449-.374 2.128-.306.667.069 2.104.623 2.612.894.068-.011.137-.011.215-.011v-.283c-.168-.023-.328-.034-.499-.045-.021-.069-.045-.137-.079-.215.204-.056.384-.113.589-.18.058.259.463.679.69.949-.045.023-.092.057-.135.081-.047.077-.102.158-.135.236.225.158.452.351.688.521.339-.137.667-.283 1.007-.408.034.159.079.33.125.487.497-.137.542-.407.859-.69.294.306.521.746.917.938.068.034.146.09.214.137h.092c.09-.125.18-.261.272-.384-.238-.216-.476-.442-.69-.667-.057-.034-.102-.092-.158-.137.203-.259.372-.328.79-.405.125-.25.092-.25.079-.646-.192.114-.396.215-.576.328h-.069c-.045-.079-.088-.124-.146-.214 1.108-.701 2.42-.533 3.574-.306.069-.193.137-.351.215-.52.079-.047.146-.092.227-.159-.023.305-.023.633-.023.928 1.617.191 2.805-.44 4.003.825.293.314.282.847.416.982"/><path d="m453.263 23.207c-.327.113-.634.225-.949.328-.035.124-.056.236-.08.351v.067c.509.261 2.047.587 2.737.214.148-.135.296-.259.431-.405v-.215c-.679-.16-1.198-.34-2.139-.34"/><path d="m457.076 23.432c.124.146 0 .056.203.146-.068-.056-.136-.09-.203-.146"/><path d="m445.234 26.282c-.353-.18-.825-.294-1.278-.25.079-.18.146-.373.227-.542-.566-.362-1.697-.69-2.059-1.222-.261-.25.022-.589-.409-.792-.055.068-.1.135-.146.203-1.322-.135-2.826.533-3.223 1.414-.679-.011-1.301-.011-1.652.272.373.283 1.369.191 1.867.204-.103.068-.206.135-.307.203-.067.136-.146.271-.214.408 1.052.191 2.749-.114 3.472-.555.407.112.803.227 1.209.339-.113.034-.236.079-.362.137.679.576 1.867.588 3.168.542-.09-.123-.18-.225-.293-.361"/><path d="m441.636 24.088c-.079-.067-.146-.137-.225-.216-.045.148-.092.283-.146.397.169-.058.339-.114.508-.182h-.137z"/><path d="m460.842 26.475c.259-.159.191.022.146-.261-.904-.034-.747-.418-1.437-.566-.159.103-.339.182-.508.26.124.306.124.341-.013.6.939-.034 1.234.034 2.092.193-.088-.069-.19-.136-.28-.226"/><path d="m466.983 25.897c-.022.034-.045.079-.069.114h.137c-.023-.034-.035-.079-.068-.114"/><path d="m461.284 26.428c.111.137 0 .036.213.137-.079-.045-.147-.101-.213-.137"/><path d="m440.473 26.711c-.397.125-.793.227-1.166.328.011.159.021.317.044.476 1.097-.114 2.104-.045 3.053-.33.022-.032.045-.079.069-.146-.655-.112-1.334-.226-2-.328"/><path d="m448.627 26.779v.205c.146.011.327.011.508.011v-.068c-.179-.056-.339-.09-.508-.148"/><path d="m459.146 27.91c-.182-.418-.714-.655-1.2-.778.011.157.035.326.045.474h-.643c.01.045.056.09.079.135.712.09 1.301.182 1.854.373-.045-.068-.091-.135-.135-.204"/><path d="m447.382 27.186c-.022.058-.058.091-.079.137.169.135.327.271.497.407.227.022.44.034.656.068.022-.034.045-.045.067-.068 0-.058 0-.135.013-.215-.385-.102-.769-.226-1.154-.329"/><path d="m449.69 27.401c-.238-.056-.487-.09-.712-.135.124.305.315.362.564.543h.283c.022-.036.056-.081.069-.137-.068-.1-.124-.19-.204-.271"/><path d="m444.477 28.001c-.238.08-.488.157-.726.249-.055.113-.101.191-.158.282.079.103.135.227.203.352.544.079.827-.227 1.313-.341.079-.09.158-.18.227-.293-.25-.136-.408-.237-.859-.249"/><path d="m455.447 28.397c-.012.056-.012.09-.012.146.079-.022.16-.057.238-.068v-.067c-.069 0-.159 0-.226-.011"/><path d="m452.111 28.929c.146.203.328.236.576.328h.283c-.182-.17-.532-.272-.859-.328"/><path d="m487.827 30.545c.113.148 0 .034.227.148-.136-.148-.001-.056-.227-.148"/><path d="m444.782 30.037c.057.045.09.079.135.135h.43c0-.034.011-.056.011-.079-.191-.01-.374-.044-.576-.056"/><path d="m515.538 35.477c-.566.159-.816-.203-1.302-.497-.124.011-.247.034-.373.045.091.067.157.146.236.225-.802.17-1.774-.362-2.601-.564-.033.022-.045.056-.067.067.034.09.079.215.137.306-.351-.272-.634-.532-1.153-.634v.079c.158.137.283.283.43.442v.068c-.385-.125-.316-.182-.577.056-.827-.69-1.493-1.571-2.884-1.73.135.124.238.249.373.384-.205-.079-.387-.182-.6-.238-.18.136-.373.294-.564.476-.034.034-.059.079-.079.124.948.227 1.888.475 2.827.701-.463.339-.961.204-1.743.056-.021.023-.046.068-.067.09.021.045.047.09.067.137 1.313.317 1.845.679 2.749 1.13.023.057.045.114.068.159-.229-.079-.476-.125-.714-.182-.034.022-.055.045-.09.068.056.09.114.215.146.294 1.971.521 6.766 2.917 8.426 1.018v-.067c-.848-.554-2.104-1.38-2.645-2.013"/><path d="m457.686 32.141v.159c.058-.069.091-.114.157-.159z"/><path d="m464.427 32.537c.136.191.079.158.351.225v-.067c-.137-.113-.092-.102-.351-.158"/><path d="m466.088 32.865c-.202-.067-.394-.102-.576-.158-.101.248-.011.214-.496.191 0 .022-.014.045-.014.068.205.249.556.476.929.588.126-.09.247-.191.362-.283-.068-.134-.135-.271-.205-.406"/><path d="m460.422 33.294c-.123-.045-.238-.056-.35-.079-.081.034-.158.079-.226.146-.046.045-.103.125-.148.193.248.191.646.135 1.019.079.021-.034.045-.09.067-.125-.112-.066-.236-.146-.362-.214"/><path d="m572.755 95.488c-.362-.724-.714-1.47-1.054-2.227.069.112.126.214.205.316.045.021.078.045.135.079v-.148c.092-.351-.34-.814-.564-1.12.045-.022.112-.034.146-.045.147.159.328.328.51.521.011 0 .045.022.055.022-.123-.305-.236-.6-.36-.905.282.26.521.521.791.78-.353-.791-1.3-2.409-2.124-2.76.11-.294 0-.169.281-.101-.25-.928-1.639-1.753-1.775-3.133.021 0 .056.012.066.012.125.757.68.555.996.881h.09c-.293-.407-.586-.813-.858-1.221.135-.101.271-.215.418-.328.351-.227.599.531 1.063.531.045.318.078.341.123.667.079-.871-.021-1.99-.146-2.295-.373-.429-.635-1.063-.961-1.618-1.098-1.821-1.877-3.313-2.691-5.395-.205-.521-6.798-10.801-15.191-18.672-8.674-8.109-19.171-13.799-19.023-13.833-.227.248-.384.463-.768.576.045.454-.045.454.146.736-.226.09-.372.191-.634.317.262.396.623.644.872.96.056.26.112.497.157.746.67.996 2.038 1.493 2.568 2.704.362.081.328-.011.566-.169.113.27.214.576.315.881.362.452 2.25 1.538 2.962 1.097.33-.18.363-.701.205-1.119.137-.079.283-.137.418-.203-.057-.103-.09-.215-.135-.33v-.077c2.014.96 3.019 3.471 5.158 4.331.09.259.202.508.292.757-.317.113-.384.339-.556.576.387.533.861.939 1.518 1.234-.191.283-.137.135-.508.034 0 .034 0 .056.011.067.159.261.306.364.575.51.148.011.283.022.409.022v-.543c-.193-.204-.431-.634-.782-.791 0-.237-.043-.068.137-.25-.146-.169-.305-.351-.43-.497.385.214.61.51.803.917.272.011.555.045.859.045.022.011.033.011.068.011v-.214c-.215-.227-.395-.476-.588-.703.102-.192.092-.09.067-.328.247.022.532.067.782.103-.092-.182-.193-.362-.295-.555.146.125 3.041 2.715 2.895 2.805-.395.205-.305.396-.202.814-.126.034-.227.069-.351.114-.487.576-.634.032-1.211-.011-.248-.25-.135-.103-.079-.353-.227-.18-.44-.396-.655-.564 0 .124.012.283.012.396-.147-.022-.284-.057-.431-.09.091.418-.103.259-.216.792-.102-.023-.238-.057-.339-.079-.146-.158-.226-.531-.238-.69-.145-.169-.09-.146-.362-.225.059.079.092.191.16.283-.589.01-1.041-.476-1.437-.815-.171-.045 0-.034.055-.135-.191-.182-.292-.249-.655-.306-.011-.056-.046-.09-.056-.135.01-.034.034-.09.056-.137.477.283.974.588 1.448.872-.283-.634-.972-1.584-1.729-1.357-.182-.203-.249-.735-.453-1.041.104.067.18.103.295.158.021-.102.031-.225.056-.328-.669-.767-1.606-1.176-1.979-2.25-.146.067-.271.137-.407.203.045.182.102.397.146.589-.102 0-.191 0-.294-.012-.1.069-.238.125-.338.182.238 1.277 2.848 3.246 2.701 3.823.171.034.34.067.498.112.294.499.61.78.95 1.324-.272.114-.181-.034-.136.407-.441-.146-.521-.203-1.074-.192v.34c-.33.034-.669.079-.984.09-.058.112-.113.227-.147.328.101.182.192.328.282.486.295.136.228.136.509.035.182.394.341.475.308.824-.205.249-.059.136-.363.058-.021-.011-.057-.011-.08-.011.07.508.059.6.295.904-.18-.034-.373-.067-.564-.09-.238-.724-.498-1.437-.736-2.149-.045-.034-.114-.056-.169-.067h-.046c.227.95 1.028 2.477.453 3.02-.373.351-1.11.418-1.426.836.216.452.396.895.588 1.335-.226.225-.372.315-.779.396-.182.237-.361.463 0 .69-.058.068-.137.146-.204.214-.883.182-1.876-.587-2.532-.825-.012.022-.045.058-.07.067.409.6.951.951 1.166 1.708.091.056.158.146.226.203v.069c-.575-.081-.905-.17-1.301.146-.271-.227-.576-.43-.872-.656-.473.26-1.254.158-1.661.577h-.137c.126.611.565.542.95.848-.157.022-.305.056-.44.081.769.701 1.912.52 2.974.917.047 0 3.428 3.167 3.475 3.324-.126-.091-.238-.182-.375-.294-.012.034-.033.056-.066.067.859 1.177 1.799 2.895 1.799 5.124-1.257.463-4.176-.351-5.814-.566-.441-.045-1.526.442-2.184.227-.317-.125-.453-.384-.949-.272-.385-.09-.599.351-.432.701-.349.102-.791.148-.928.409-.112.056-.213.113-.293.18.023.735.465.679.566 1.233.203-.045.146-.045.361-.159.158 1.233.882 2.104 1.302 3.27.372 1.028.157 4.082-.058 5.1.328.272.487.486.781.825.135-.09.281-.169.43-.261.371.962.632 1.958.587 3.484.667-.248 1.503.147 1.865.024.261-.081.386-.396.827-.499 1.223-.553 1.82 2.398 3.166 2.634.271-.282 1.312-1.277 1.401-1.526.974-.021 1.641-.146 2.432.102.058-.102.103-.203.159-.306.385.035.418.081.633.25.227-.486.419-1.392.601-1.81.248-.113.338-.137.792-.137.021-.417-.282-1.05-.033-1.798.123-.418.451-.441.576-.973-2.184-1.481-.215-3.347-.825-4.522.417-.544.769-.362 1.288-.747.317-.227.656-.905.939-1.2-.125-.791-1.346-1.933-1.063-2.782.102-.236.44-.396.576-.69 1.098.362 1.786.838 2.748 1.198.463-.43.351-1.277 1.223-1.414.056-.315.137-.655.202-.983 0-.056-.01-.102-.01-.137 1.944.317 3.075 2.976 4.06 4.322 0 0 2.703 2.589 2.805 2.657.067.045.361-.113.645.067.16.272.328.566.488.849 2.079 1.922 2.691 2.511 3.584 5.497-.215.113-.645.169-.838.531-.712-.034-.712-.112-1.152-.463-.102.135-.079.09-.125.351-.103-.09-.192-.159-.293-.238-.012 0-.046-.011-.068-.011-.035.328-.104.667.068.962.135.227 2.736 2.306 3.041 2.443h.08c-.159-1.085-.713-1.651-.713-2.998.158.125.281.215.43.328h.057c.157-.576.023-1.277-.182-1.764.045-.384.012-.283.271-.407-.227-.917-.689-1.018-1.119-1.628-.137-.543-.283-1.109-.442-1.653.058-.043.114-.078.159-.124.296.454 1.107 1.301 1.562 1.595-.384-1.562-1.923-2.895-3.269-3.562-.158-.283-.203-.475-.192-.962-.44-.227-.78-.045-1.223-.407-1.029-.848-1.492-2.183-2.317-3.257-.713-.906-2.047-1.268-2.409-2.522.022-.158.069-.328.092-.487-.171-.396-.589-.475-.724-.994.394-.069.373-.182.553-.454.102.022.193.034.307.034.258.339.781 1.335.971 1.809.058.023.114.034.148.081.011-.159.056-.339.066-.487.136.25.248.487.362.746.081.057.124.114.216.159-.102-.238-.193-.465-.271-.656.656.236.914 1.402 1.256 1.809.508.645 1.288.996 1.753 1.47-.079-.022-.171-.067-.261-.101.182.339.316.429.484.712.127 0 .239.022.352.034-.112-.124-.225-.225-.352-.328.058-.022.094-.045.139-.056.147.102.305.215.439.328.023.056.046.09.057.148-.146.045-.284.067-.418.102.306.317.248.024.623.215.791.384 2.08 1.729 2.566 2.477.361 1.052.779 2.093 1.188 3.145.475.905 1.573 1.82 1.967 2.782.216-.011.022.022.216-.045.022.079-.171.396 0 .712.202.306.633.735 1.129.814-.1.396-.134.294-.134.86.497.701.983 1.391 1.266 2.329.079.034.159.103.216.159h.067c-.056-.159-.079-.362-.124-.521.023 0 .045 0 .068.022.147.352.316.726.496 1.097.035.023.081.047.126.081-.045-.193-.091-.373-.126-.588.126.182.263.373.42.532h.069v-.003z"/><path d="m434.363 38.747c-.372-.216-.881-.294-1.446-.34-.114.045-.238.09-.373.146.214.407 1.3.746 1.809.881h.057c.09-.314.034-.429-.047-.687"/><path d="m470.048 40.861c.135.236-.045.079.226.214h.068c.032-.045.045-.09.079-.135-.124-.023-.26-.056-.373-.079"/><path d="m473.872 44.3c.056.067.102.135.146.203.021 0 .046 0 .078.011v-.079c-.078-.045-.146-.09-.224-.135"/><path d="m471.461 45.543c-.17.045-.339.079-.521.124-.055.487-.067.137-.202.42.993-.045 1.955-.193 2.815-.249-.689-.104-1.39-.205-2.092-.295"/><path d="m476.177 47.001c0 .205-.067.09.067.283.069-.056.148-.101.227-.135v-.08c-.1-.033-.191-.056-.294-.068"/><path d="m461.067 49.366c-.021.045-.045.079-.066.135 1.64 1.02 2.771 1.89 4.931 2.546.056-.022.101-.045.146-.056v-.205c-1.142-1.006-3.087-2.307-5.011-2.42"/><path d="m479.288 50.521c-.022.077-.055.146-.078.214.26-.124.102.045.227-.203-.048 0-.104-.011-.149-.011"/><path d="m540.464 64.125c-.34-.022-.677-.067-1.007-.09.148-.306.522-.78.396-1.245-.157-.701-1.447-2.115-2.229-1.22-.065-.012-.145-.045-.236-.079-.43-.894-1.141-1.991-2.25-2.704-.453-.193-.883-.373-1.322-.543-1.177-1.119-1.731-2.001-3.519-2.025.193-.146.386-.272.589-.407-.124-.102-.248-.203-.373-.283.283-.576-.057-1.029.057-1.571-.646-.656-1.855-.475-2.704-.306 0-.407.137-.249-.214-.407.09-.328.225-.531.486-.69-.046-.158-.104-.328-.148-.487-.746-.158-1.471.159-2.183-.066-.157.191-.136.236 0 .486-.112.294-.067.328.171.622-.059.022-.113.045-.16.067-.247-.033-.123-.067-.283.135.137.238.283.476.443.714v.067c-.317-.227-.646-.463-.951-.691-.159.284-.078.114-.305.442.384.362 1.177.634 1.548.656.057.102.114.182.159.294-.137.067-.248.146-.373.214.16.362.283.362.226.769.237-.021.485-.068.724-.09.035-.112.057-.238.078-.339v-.146c.036 0 .045-.011.07-.011.123.792.543 1.333.757 2.171h.294c.023-.045.044-.102.068-.146-.045-.125-.102-.238-.146-.351.146.09.293.18.44.272h.067c-.078-.227-.148-.476-.225-.691.201.137.394.271.587.407.169.318.157.634.024 1.053.213.18.438.362.643.553h.104c-.069-.101-.127-.191-.184-.283v-.068c.238.09.455.17.68.272v-.283c.475.182.655.067 1.018-.215.486.6.284 1.562 1.471 1.381.012.589.16.792.362 1.165-.566.463-1.131.135-1.732.022.081.463.239.384.521.634-.111.101-.202.227-.305.351.023.034.058.079.092.125.193-.081.373-.148.564-.216.204.261.42.508.6.758-.078.452-.463.645-.938.712-.067.067-.148.146-.216.227.236.203.499.396.747.61.757-.396 1.458.103 2.307.396.191-.09.396-.203.59-.283-.115.238-.092.216-.07.499h-1.458c.009.645-.418 1.369-.984 1.911v.148c.373.022.418-.034.815.191.18-.281.077-.508.621-.643.385-.114.793.112 1.164.203.022-.248-.067-.712.148-.848 0 0 2.295.18 2.385.236h.215c-.055-.135-.101-.236-.157-.362 1.108.047 1.651.022 2.521-.418.012-.034.047-.09.068-.135-.058-.16-.09-.284-.148-.421"/><path d="m483.608 59.002c-.351-.091-.407.226-1.017.317-.011-.103-.034-.204-.058-.294.204-.283.431-.486.793-.611.033-.034.057-.079.078-.135-.021-.034-.045-.056-.078-.079-.904.045-1.086.248-1.607.645-.045-.103-.09-.204-.146-.306-.182-.045-.046.067-.203-.079.498-.442 1.539-.714 1.741-.917.045-.034.103-.091.159-.124-.316-.294-1.086-.238-1.607-.294.172-.465.012-.125-.078-.714.418-.079.576-.146.814-.396-.475-.429-1.255-.87-1.901-.746-.293-.283-.044-.463-.495-.656-.216.092 0 .137-.238.069-.045.191-.069.112.09.281-.148-.01-.293-.01-.44-.021-.419.021-.272.045-.226-.352-.361.034-.215-.045-.283.182-.271-.146-.43-.238-.725-.227.045-.079.092-.158.137-.225-.272-.137-.092-.079-.352-.012-.045-.056-.111-.09-.157-.148 0-.09 0-.18 0-.281.293-.022.587-.034.87-.047 0-.011 0-.043 0-.067-.431-.317-.928-.317-1.38-.701-.442.17-.872.351-1.301.521.204-.714 1.472-1.37 2.183-1.528.103-.124.204-.248.307-.351-.215-.169-.215-.204-.577-.25v-.067-.067c.373.101.632.215 1.019.18.045-.045.09-.09.146-.124.011-.079.033-.148.066-.215-.395-.124-.793-.225-1.164-.339-.44.011-.883.011-1.313.022-.283.058-1.05.51-1.47.725-.78.372-1.097 1.378-2.114 1.605-.136.272-.126.205-.012.497v.069c-.281-.057-.214 0-.362-.146-.452.1-.7.417-.948.722.135.137.281.272.438.375-.609-.103-1.355.261-2.058.362.057.214.102.474.146.688 1.199.318 6.086 1.301 6.482 1.719-.09-.011-.193-.011-.283-.022.485.203.971.396 1.459.578.113-.137.09-.092.135-.352.318.125.633.26.952.397-.601.225-1.245.396-2.263.339-.034.079-.057.18-.079.272 1.538.576 2.771-.137 4.083-.521.113.114.203.25.307.374-.025.588-.374.804-.736 1.029.1.294.057.227.282.373.339-.09.69-.216 1.019-.306-.137.261-.191.373-.215.849.395.102.7.146 1.084.271.544-.271.701-.825 1.189-1.176-.035-.18-.058-.384-.093-.565"/><path d="m524.575 52.272c-.126-.022-.248-.045-.385-.067-.182.17-.373.339-.566.497.205.262.34.339.362.577.08.034.147.079.216.137.17-.148.35-.294.52-.431-.057-.237-.114-.475-.147-.713"/><path d="m478.542 52.058v.135c.057-.045.104-.079.148-.135z"/><path d="m524.202 53.551c-.081-.034-.182-.09-.283-.135-.09.056-.203.102-.283.146.248.26.406.476.611.848.045.013.123.035.202.058-.079-.306-.157-.6-.247-.917"/><path d="m478.474 52.341c.067.079.136.148.216.225.045-.045.102-.056.157-.077v-.069c-.136-.023-.249-.056-.373-.079"/><path d="m542.411 54.692c.045.079.09.148.146.215h.066c-.134-.237.037-.067-.212-.215"/><path d="m525.534 54.445c.092.102.162.191.228.272.022-.034.045-.081.079-.125-.114-.046-.204-.091-.307-.147"/><path d="m524.235 54.546v.146c.057-.045.137-.056.214-.079v-.067z"/><path d="m525.707 55.088c-.026.013-.058.046-.081.069v.067c.023.023.055.045.081.068h.067c.01-.068.032-.146.066-.204z"/><path d="m525.399 55.292v.215h.16c-.101-.215 0-.079-.16-.215"/><path d="m471.316 54.025c-.148 0-.285-.011-.42-.011-.067.011-.112.034-.169.069-.022.067-.045.124-.069.203.341.045.679.081 1.021.114-.114-.126-.239-.25-.363-.375"/><path d="m480.872 54.795c-.023.102-.056.18-.09.293.203 0 .407.013.599.024-.136-.328-.102-.26-.509-.317"/><path d="m527.174 55.904c-.18.283-.225.384-.586.497.123.396.215.294.521.476.202-.182.292-.69.065-.973"/><path d="m526.655 55.982c-.033.011-.058.046-.066.067v.069c.033.009.09.032.146.067.022-.034.032-.058.067-.067-.056-.057-.091-.089-.147-.136"/><path d="m460.795 55.281c-.271-.158-.146-.011-.225-.374-.341-.316-.182-.191-.068-.645-.068-.011-.136-.045-.203-.079-.272.135-.544.226-.816.34-.022.045-.045.09-.066.124.767.703 1.458 1.11 2.531 1.504.238.148.092 0 .147.227.183.205.282.25.59.384.667-.135.564-.485 1.537-.452.012-.022.047-.034.067-.068v-.091c-.484-.191-3.494-.87-3.494-.87"/><path d="m528.193 56.446h-.159v.294c.114-.045.215-.067.307-.09-.056-.067-.092-.137-.148-.204"/><path d="m528.667 59.738c-.021-.034-.057-.102-.067-.148.453-.146.42-.351.712-.508v-.339c-.509-.499-.962-.499-1.411-1.177-.533-.261-.951-.158-1.383.193.047-.17.024-.091.148-.305-.215-.079-.432-.158-.668-.261-.192.238-.6.339-1.085.396-.079.476-.056.476-.294.803.27.215.553.182.894.103-.136.362-.272.261-.294.587-.656 0-1.313.013-1.991.024.056.417.136.158.304.417-.076.036-.135.058-.212.092.271.27.542.248.96.225-.26.272-.294.317-.52.543.588.758 1.062.306 1.92.533-.485.326-.349.337-.359.823-.328.318-.295.193 0 .431-.193.328-.126.124-.069.52-.202-.021-.394-.034-.575-.045-.068.137-.102.25-.16.374.283-.045.533-.09.805-.124-.171.113-.342.227-.499.317.87 2.104 3.925-.6 5.259-.555-.058-.941-.464-2.445-1.415-2.919"/><path d="m481.811 56.492c-.022.067-.047.135-.068.203.068-.034.137-.045.203-.056-.033-.056-.09-.102-.135-.147"/><path d="m547.613 58.199c.055.103.091.227.136.341.191.067.339.124.51.18-.181-.306-.274-.385-.646-.521"/><path d="m453.547 56.605c-.068.101-.137.191-.216.271.045.034.09.056.137.079.205-.159.18-.045.304-.351h-.225z"/><path d="m458.941 56.911c-.022.09-.045.191-.079.283.079.055.158.102.238.158.429-.056.87-.135 1.312-.193-.497-.08-.974-.159-1.471-.248"/><path d="m530.49 58.787c-.069.148-.103.283-.147.441.021.045.045.114.066.193.137-.022.238-.045.373-.079.023-.069.047-.148.068-.205-.123-.123-.248-.226-.36-.35"/><path d="m448.944 56.706c-.045.227-.058.159.079.351.045-.045.102-.101.148-.135-.081-.081-.137-.137-.227-.216"/><path d="m466.756 57.463h-.146c-.012.057-.045.092-.068.137.214-.022.363.09.214-.137"/><path d="m449.385 57v.148c.045-.058.09-.114.135-.148z"/><path d="m466.542 57.679c-.113-.011-.248-.011-.363-.034-.146.101-.292.204-.44.283.294.011.577.022.872.045v-.079c-.024-.067-.046-.159-.069-.215"/><path d="m475.896 58.063c.034.09.091.182.135.306.057-.069.103-.102.146-.159-.09-.045-.179-.09-.281-.147"/><path d="m480.567 58.358c-.115.056-.205.135-.295.191-.032.069-.045.137-.077.215h.214c.137-.067.248-.112.373-.182v-.225h-.215z"/><path d="m454.417 57.634c.125.056.022.056.136 0z"/><path d="m475.885 58.414c-.023.056-.047.09-.07.146.07.034.148.045.216.092.057-.023.114-.058.146-.081-.09-.044-.19-.101-.292-.157"/><path d="m476.177 58.652v.135c.057-.045.103-.079.137-.124-.034.001-.08-.011-.137-.011"/><path d="m548.924 60.585c.158.079.294.158.418.227v-.069c-.156-.146-.146-.079-.418-.158"/><path d="m543.79 61.118c-.023.022-.056.09-.068.124.217-.068.08 0 .217-.124z"/><path d="m543.022 61.479c-.025.056-.057.09-.081.146.024.011.056.034.081.067.045-.045.09-.09.135-.135v-.067c-.057.001-.09.001-.135-.011"/><path d="m542.862 61.965c0 .056 0 .112.022.182.046 0 .081.022.138.022-.092-.204 0-.091-.16-.204"/><path d="m444.906 59.727v.135c.045-.045.09-.079.148-.135z"/><path d="m442.191 60.032c-.022.067-.045.135-.067.191.101-.135.125-.034.067-.191"/><path d="m443.503 60.619c-.112.034-.238.08-.373.137v.124c.261.034.486.057.735.092 0-.035 0-.045 0-.069-.148-.215-.067-.193-.362-.284"/><path d="m439.487 60.688c-.045.022-.09.056-.145.067v.056c.124-.034.248-.067.372-.113-.078.001-.148.001-.227-.01"/><path d="m441.388 60.71c.124.068.012.068.148 0z"/><path d="m440.505 60.767c.057.056.102.101.146.146h.08c-.134-.146.001-.056-.226-.146"/><path d="m444.443 61.129c-.023.056-.045.09-.068.146.113.034.248.09.36.146h.081c.022-.045.045-.09.056-.146-.137-.112-.125-.112-.429-.146"/><path d="m363.711 66.127c-.25.803-.555 1.335-.703 2.092.036 0 .056-.011.067-.011.342-.577 1.144-1.198.636-2.081"/><path d="m362.534 68.784c.216-.158.103-.088.137-.236-.046.078-.079.158-.137.236"/><path d="m428.607 69.939c-.022.057-.045.09-.067.135h.204c-.047-.045-.092-.078-.137-.135"/><path d="m361.278 74.542c-.067.339-.158.69-.216 1.041.013.045.047.09.058.135.045-.011.067-.011.09-.011.09-.351.17-.712.26-1.052-.055-.032-.123-.057-.192-.113"/><path d="m558.753 76.533c.079.09.157.203.228.304v-.225c-.07-.023-.148-.056-.228-.079"/><path d="m388.694 75.243c-.056.114-.09.205-.135.294.135-.157.191-.101.135-.294"/><path d="m395.435 75.108c-.248.214-.452.238-.576.599.476.045.769-.022 1.198 0v-.068c-.204-.18-.407-.373-.622-.531"/><path d="m386.704 76.113c-.045.081-.09.148-.135.215.09-.056.18-.112.272-.157-.046-.033-.092-.033-.137-.058"/><path d="m562.236 81.147v.238h.136c-.101-.226 0-.08-.136-.238"/><path d="m556.581 80.853c.069.158.137.341.216.521-.146.079-.293.158-.43.259.012.917.655 2.092 1.257 2.444.045.056.09.09.146.146h.066c-.021-1.04-.543-2.961-1.255-3.37"/><path d="m557.644 81.237c-.055.011-.1.022-.147.056v.205c.127.022.228.034.352.034-.102-.227-.048-.158-.205-.295"/><path d="m357.773 85.501c-.011.046-.045.092-.069.148.069.09.137.17.205.248h.056c-.023-.35.022-.293-.192-.396"/><path d="m560.008 89.211c-.25-1.663-.961-3.427-1.82-4.581-.057-.022-.137-.069-.215-.101-.035.225-.092.44-.147.667-.283.159-.191.17-.566.022.057.836.905 1.617 1.188 2.307.26.532.068 1.188.226 1.595.292.169.351.418.917.51-.034-.193-.045-.408-.068-.602.168.023.191.047.407.182h.078z"/><path d="m569.645 86.249v.305c.067.043.146.09.215.158-.068-.317-.046-.272-.215-.463"/><path d="m570.279 86.825c.045.092.09.182.135.294h.091c-.126-.272-.001-.146-.226-.294"/><path d="m569.78 87.572c.034.111.092.236.148.372-.114-.09-.193-.169-.283-.236.09.146.169.294.283.441.067-.068.135-.124.214-.18-.136-.149-.248-.285-.362-.397"/><path d="m570.561 87.923v.203c.091.09.181.182.293.248v-.293c-.112-.057-.202-.102-.293-.158"/><path d="m568.073 88.647c.101.135.203.248.293.372-.09-.192-.112-.226-.293-.372"/><path d="m571.261 90.139v.214c.103.047.192.125.296.17-.103-.148-.193-.249-.296-.384"/><path d="m536.077 89.019c.01.136.045.249.067.396.022-.146.057-.259.079-.407-.056.011-.101.011-.146.011"/><path d="m569.487 91.157v.564c.091.092.145.171.226.25.067.034.137.056.202.079.023-.034.047-.09.057-.124-.158-.26-.315-.509-.485-.769"/><path d="m570.843 91.553c-.102-.023-.182-.069-.294-.092.215.215.441.397.645.622.033-.045.092-.079.146-.135-.169-.136-.326-.271-.497-.395"/><path d="m569.983 92.355c.023.09.058.182.08.294.079.09.18.157.283.238v-.305c-.125-.069-.226-.148-.363-.227"/><path d="m374.861 92.446v.577c.092-.011.193-.011.273-.022v-.081c-.079-.225-.091-.337-.273-.474"/><path d="m572.688 95.714c.067.148.146.295.191.442.032-.056.067-.101.102-.146-.124-.092-.203-.205-.293-.296"/><path d="m468.622 218.124c-.022.09-.043.193-.067.292.112-.1.237-.203.362-.292z"/><path d="m466.315 218.25c-.066.055-.147.101-.227.146.045.056.104.09.16.146h.35v-.067c-.09-.079-.193-.158-.283-.225"/><path d="m466.893 218.328v.148c.045-.058.09-.091.146-.148z"/><path d="m455.379 225.282c-.022.08-.045.148-.056.238.135-.146.043 0 .124-.238z"/><path d="m455.233 225.669c-.013.057-.047.135-.058.215.045-.058.092-.113.137-.158-.023-.014-.047-.046-.079-.057"/><path d="m450.006 229.671c-.339.057-.679.091-1.005.137-.384.882-1.278 1.334-2.015 1.832v.078c.137.058.25.103.362.16.691-.103 1.177-.373 1.584-.668 0-.123 0-.248-.011-.361.474-.067.769-.296 1.085-.521z"/><path d="m410.354 232.499c.146.068.022.078.157 0z"/><path d="m410.104 234.638c-.022.055-.056.09-.079.146.056.023.103.057.147.079.034-.022.045-.056.068-.079-.033-.056-.091-.092-.136-.146"/><path d="m428.483 239.761c.079.361.057.453.362.577v-.056c-.123-.283-.011-.375-.362-.521"/><path d="m412.605 241.593c.124.215.01.021.225.147.022-.024.045-.058.067-.069v-.078z"/><path d="m411.326 243.278c-.148-.125-.137-.125-.442-.146.067.076.103.146.159.213h.294c0-.033-.011-.045-.011-.067"/><path d="m411.417 244.657v.226h.204c-.07-.068-.136-.147-.204-.226"/><path d="m412.14 245.687c-.021.045-.045.09-.066.148h.145c-.034-.059-.045-.104-.079-.148"/><path d="m418.678 256.635c-.022.024-.047.056-.067.079.045.057.112.103.158.158.056-.033.135-.056.204-.078-.091-.057-.194-.104-.295-.159"/><path d="m419.977 257.302c-.067-.022-.135-.045-.213-.078-.135.09-.294.182-.43.294.452.056.634.181.792-.216z"/><path d="m421.721 257.302c-.135-.022-.25-.045-.373-.078-.069.033-.148.056-.227.078.057.012.113.047.158.069.069.067.146.146.205.214.101-.045.191-.114.304-.146-.022-.057-.045-.092-.067-.137"/><path d="m422.364 258.445v-.069c-.576-.045-.836-.033-1.232-.283-.069-.485 0-.654-.499-.791.114.531.272 1.119.216 1.447.09.012.146.034.227.068.056-.171.135-.352.203-.509.047.034.092.055.146.067.137.353.33.633.646.793-.114-.17-.238-.33-.362-.498v-.079c.226-.055.43-.089.655-.146"/><path d="m421.222 259.531c.022.045.045.09.079.157.013-.067.034-.112.058-.157z"/><path d="m425.746 261.046c-.022.271-.079.113.227.215-.079-.069-.159-.136-.227-.215"/><path d="m427.838 261.125c.171.237.531.214.859.282.036-.056.058-.101.069-.146-.307-.046-.61-.091-.928-.136"/><path d="m425.169 261.261c.159.361.373.486.804.565-.227-.261-.431-.43-.804-.565"/><path d="m456.521 15.063c-54.389 0-101.067 32.991-121.098 80.086 18.47-32.901 57.546-72.384 121.008-72.328 57.342.057 100.197 34.542 121.21 72.407-20.007-47.129-66.695-80.165-121.12-80.165"/><path d="m581.973 186.524c-17.045 52.139-64.977 92.709-125.735 92.709-64.444 0-107.739-40.026-125.145-91.603 18.106 48.046 67.339 82.497 125.225 82.497 58.349.001 107.897-34.992 125.655-83.603"/><path d="m728.348 179.964c-.463 2.092-2.047 3.393-4.039 3.393-2.918 0-4.794-2.127-4.794-4.955 0-2.884 1.785-4.918 4.751-4.918 2.035 0 3.721 1.13 4.037 3.279h-1.346c-.25-1.209-1.257-2.092-2.691-2.092-2.117 0-3.281 1.616-3.281 3.686 0 2.025 1.29 3.812 3.324 3.812 1.438 0 2.443-.939 2.648-2.207h1.391zm-4.288 5.327c3.733 0 6.605-2.986 6.605-6.933 0-3.857-2.872-6.842-6.605-6.842-3.776 0-6.671 2.985-6.671 6.842 0 3.946 2.895 6.933 6.671 6.933m0-14.953c4.4 0 8.077 3.461 8.077 8.019 0 4.661-3.677 8.12-8.077 8.12-4.443 0-8.141-3.459-8.141-8.12 0-4.558 3.698-8.019 8.141-8.019"/><path d="m88.031 365.407v-17.702h8.409v17.501c0 3.613 2.027 6.663 8.31 6.663 6.303 0 8.329-3.05 8.329-6.663v-17.501h8.469v17.702c0 4.475-1.946 12.383-16.899 12.383-14.932 0-16.618-7.908-16.618-12.383"/><path d="m144.43 357.159v19.748h-6.665v-29.202h8.209l18.405 18.304v-18.304h6.664v29.202h-6.865z"/><path d="m189.468 347.726h8.328v29.181h-8.288z"/><path d="m227.561 376.907-15.834-29.181h9.373l10.697 19.869 11.34-19.869h7.325l-16.518 29.181z"/><path d="m264.21 347.726h28.622v5.679h-20.412v5.8h13.889v5.739h-13.889v6.223h20.633v5.74h-28.803z"/><path d="m323.218 365.929h-6.141v10.979h-8.27v-29.202h20.815c6.142 0 10.355 2.81 10.355 8.71 0 5.238-3.652 7.707-7.587 8.751l9.013 11.741h-9.794zm-6.181-12.524v6.884h7.185c5.6 0 7.006-1.063 7.006-3.874 0-1.666-.684-3.01-4.898-3.01z"/><path d="m354.488 374.479v-6.705c5.299 2.43 10.678 4.095 13.81 4.095 5.137 0 6.783-1.284 6.783-2.87 0-.862-1.063-1.545-3.089-2.207-6.023-2.067-18.024-3.332-18.024-11.521 0-5.719 6.442-8.408 13.367-8.408 4.998 0 11.099 1.666 14.17 2.909v6.483c-3.433-1.506-9.132-3.492-14.17-3.492-3.594 0-4.597 1.244-4.597 2.066 0 .883 1.044 1.666 3.11 2.369 5.602 2.066 18.024 3.512 18.024 10.979 0 6.342-5.94 9.574-15.574 9.574-4.858 0-10.237-1.706-13.81-3.272"/><path d="m420.24 371.007h-15.575l-3.331 5.92h-7.628l16.558-29.222h6.364l15.834 29.222h-9.092zm-12.364-5.64h9.252l-4.497-8.329z"/><path d="m445.369 347.726h8.251v23.441h19.127v5.74h-27.338z"/><path d="m516.78 368.659v8.248h-8.268v-29.202h17.941c7.508 0 13.106 2.368 13.106 9.935 0 8.831-6.321 11.02-14.609 11.02h-8.17zm-.039-15.254v9.613h6.563c5.8 0 7.327-.984 7.327-5.379 0-2.689-1.767-4.234-5.6-4.234z"/><path d="m554.112 347.726h8.371v29.181h-8.332z"/><path d="m576.389 362.335c0-10.817 9.556-15.473 18.566-15.473 5.178 0 10.197 1.625 13.268 2.869v6.503c-3.412-1.585-8.249-3.472-13.268-3.472-7.405 0-10.015 5.339-10.015 9.572 0 4.195 2.609 9.534 10.015 9.534 5.559 0 9.172-1.384 13.469-3.391v6.503c-3.613 1.686-8.211 2.79-13.469 2.79-8.589.001-18.566-3.833-18.566-15.435"/><path d="m639.091 376.907h-8.27v-23.463h-11.44v-5.718h31.15v5.699h-11.44z"/><path d="m662.373 365.407v-17.702h8.409v17.501c0 3.613 2.067 6.663 8.311 6.663 6.262 0 8.33-3.05 8.33-6.663v-17.501h8.508v17.702c0 4.475-1.986 12.383-16.918 12.383-14.914 0-16.64-7.908-16.64-12.383"/><path d="m725.596 365.929h-6.143v10.979h-8.27v-29.202h20.775c6.182 0 10.396 2.81 10.396 8.71 0 5.238-3.653 7.707-7.566 8.751l8.952 11.741h-9.755zm-6.181-12.524v6.884h7.185c5.62 0 6.966-1.063 6.966-3.874 0-1.666-.645-3.01-4.858-3.01z"/><path d="m758.43 347.726h28.621v5.679h-20.41v5.8h13.848v5.739h-13.848v6.223h20.633v5.74h-28.803z"/><path d="m799.616 374.479v-6.705c5.299 2.43 10.678 4.095 13.85 4.095 5.098 0 6.784-1.284 6.784-2.87 0-.862-1.063-1.545-3.131-2.207-6.022-2.067-17.983-3.332-17.983-11.521 0-5.719 6.442-8.408 13.326-8.408 4.998 0 11.1 1.666 14.17 2.909v6.483c-3.433-1.506-9.132-3.492-14.17-3.492-3.553 0-4.598 1.244-4.598 2.066 0 .883 1.084 1.666 3.111 2.369 5.602 2.066 18.064 3.512 18.064 10.979 0 6.342-5.94 9.574-15.574 9.574-4.857 0-10.236-1.706-13.849-3.272"/><path d="m84.016 418.635h-16.097v11.962h-8.289v-29.184h8.248v11.522h16.098v-11.522h8.251v29.184h-8.211z"/><path d="m107.961 416.025c0-10.818 9.574-15.475 18.584-15.475 9.051 0 18.687 4.656 18.687 15.475 0 10.857-9.674 15.435-18.687 15.435-9.009 0-18.584-4.577-18.584-15.435m8.61 0c0 4.194 2.609 9.534 9.975 9.534 7.487 0 10.135-5.34 10.135-9.534 0-4.195-2.689-9.574-10.135-9.574-7.365 0-9.975 5.339-9.975 9.574"/><path d="m189.266 415.263-8.308 15.313h-4.637l-8.67-15.313v15.313h-6.644v-29.182h8.029l10.618 18.646 10.015-18.646h7.848v29.182h-8.251z"/><path d="m215.841 401.413h28.619v5.681h-20.41v5.8h13.847v5.741h-13.847v6.221h20.633v5.741h-28.801z"/><path d="m282.415 401.413h28.682v5.681h-20.454v5.8h13.891v5.741h-13.891v6.221h20.634v5.741h-28.822z"/><path d="m333.735 410.847v19.729h-6.662v-29.182h8.208l18.405 18.304v-18.304h6.665v29.182h-6.866z"/><path d="m394.911 430.597h-8.269v-23.444h-11.461v-5.74h31.17v5.701h-11.44z"/><path d="m421.204 401.413h28.661v5.681h-20.451v5.8h13.888v5.741h-13.888v6.221h20.633v5.741h-28.803z"/><path d="m480.211 419.618h-6.142v10.979h-8.229v-29.203h20.775c6.141 0 10.355 2.811 10.355 8.69 0 5.259-3.633 7.728-7.588 8.771l9.013 11.742h-9.794zm-6.181-12.524v6.884h7.227c5.559 0 6.964-1.063 6.964-3.894 0-1.686-.682-2.99-4.897-2.99z"/><path d="m530.227 430.597h-8.269v-23.444h-11.44v-5.74h31.15v5.701h-11.441z"/><path d="m577.555 424.695h-15.574l-3.334 5.921h-7.625l16.559-29.203h6.361l15.836 29.203h-9.092zm-12.364-5.639h9.253l-4.496-8.329z"/><path d="m602.804 401.413h8.409v29.184h-8.369z"/><path d="m636.281 410.847v19.729h-6.663v-29.182h8.209l18.404 18.304v-18.304h6.663v29.182h-6.864z"/><path d="m709.458 415.263-8.308 15.334h-4.638l-8.669-15.334v15.334h-6.684v-29.203h8.069l10.618 18.646 10.015-18.646h7.848v29.203h-8.251z"/><path d="m736.032 401.413h28.621v5.681h-20.41v5.8h13.846v5.741h-13.846v6.221h20.632v5.741h-28.803z"/><path d="m787.333 410.847v19.729h-6.703v-29.182h8.249l18.365 18.304v-18.304h6.702v29.182h-6.863z"/><path d="m848.467 430.597h-8.267v-23.444h-11.44v-5.74h31.15v5.701h-11.443z"/></svg>